<svg width="1059" height="110" viewBox="0 0 1059 110" fill="none" xmlns="http://www.w3.org/2000/svg">
<path d="M10.56 75.68V23.32C10.56 21.34 10.45 18.59 10.23 17.05C9.89999 15.07 9.23999 13.42 6.59999 13.09C4.94999 12.87 -6.02566e-06 12.54 -6.02566e-06 12.54V11H30.58V12.54L19.8 13.31V44.22L49.28 11.44L44.77 1.86999L46.09 1.1L61.27 28.16C66.33 16.72 75.68 10.12 87.45 10.12C110.33 10.12 124.08 30.47 124.08 49.39C124.08 72.6 110.44 88.88 92.51 88.88C70.29 88.88 57.2 67.98 57.2 49.39C57.2 42.24 58.3 35.97 60.28 30.47C57.31 25.41 55.22 21.89 54.56 21.01C53.46 19.47 51.48 18.59 49.5 18.59C46.31 18.59 43.12 21.12 40.92 23.32L38.17 26.4L53.35 67.76C55.11 72.49 58.08 79.75 59.84 81.84C61.49 83.93 63.58 85.36 65.56 85.69C68.09 86.24 72.27 86.57 72.27 86.57V88H42.57V86.46L50.16 85.91L31.24 34.21L19.8 46.97V85.69L30.58 86.46V88H-6.02566e-06V86.57C-6.02566e-06 86.57 5.16999 86.57 6.48999 86.13C9.01999 85.47 9.89999 83.93 10.23 81.73C10.45 80.3 10.56 77.66 10.56 75.68ZM118.03 60.83C118.03 40.92 105.05 14.74 81.73 14.74C70.29 14.74 64.79 22.22 63.58 32.23L92.51 83.71C94.27 84.04 96.03 84.26 97.9 84.26C111.87 84.26 118.03 73.59 118.03 60.83ZM91.3 85.25C87.56 78.43 73.04 52.69 63.36 35.86C63.36 55 72.6 77.55 91.3 85.25ZM171.676 19.36C171.676 34.76 135.486 40.59 135.486 69.52C135.486 75.02 138.676 87.45 153.746 87.45C171.016 87.45 174.096 67.21 174.866 58.41C175.856 47.41 175.856 42.79 176.516 32.12H178.056L177.836 76.78L178.276 90.42H176.736L175.416 77.22C173.986 78.98 166.616 89.76 149.126 89.76C137.026 89.76 126.246 82.39 126.246 71.61C126.246 50.49 162.546 38.94 162.546 18.7C162.546 13.31 159.356 10.56 155.066 10.56C148.136 10.56 137.686 17.71 133.176 33H131.636L131.966 -1.10001H133.506L134.716 15.51C140.216 11.55 148.906 8.8 156.386 8.8C164.746 8.8 171.676 11.66 171.676 19.36ZM279.613 108.46L278.183 109.23C272.463 97.79 264.873 89.1 254.093 88.33C249.583 88 225.493 88 210.423 88H197.333C192.383 88 187.103 88.11 184.243 88.33C173.353 89.1 165.763 97.79 160.263 109.23L158.723 108.46L169.393 86.24H169.943C169.943 86.24 175.773 86.24 178.193 85.36C182.813 83.71 186.993 75.9 189.083 71.83L213.943 20.79C214.273 19.8 214.603 18.92 214.933 18.04C215.703 15.95 215.263 13.42 211.523 13.2C210.203 13.09 193.593 12.54 193.593 12.54V11H226.043L249.363 73.37C250.243 75.46 252.553 80.41 254.423 82.61C255.963 84.37 258.383 85.36 259.923 85.69C262.343 86.24 266.303 86.24 266.303 86.24H268.943L279.613 108.46ZM184.243 86.24H244.303L218.123 16.17L184.243 86.24ZM308.506 86.46L317.746 85.69L302.126 43.89L268.906 63.14L258.016 85.47L281.556 86.46V88H243.276V86.46C243.276 86.46 249.216 86.24 251.306 85.58C253.726 84.81 255.596 83.49 257.356 81.18C259.116 78.76 261.866 73.7 262.196 73.15L267.586 61.82L284.416 27.17C285.406 25.19 287.276 21.01 288.486 17.82C289.146 15.95 288.816 13.42 285.076 13.2C283.536 13.2 267.036 12.54 267.036 12.54V11H299.706L322.806 72.71C324.786 77.88 327.426 84.59 333.586 85.8C336.116 86.35 340.076 86.46 340.076 86.46V88H308.506V86.46ZM270.226 60.28L301.466 42.24L291.676 16.17L270.226 60.28ZM411.723 12.76C394.893 12.76 384.773 44.55 382.463 51.48C377.403 69.19 370.473 88.44 370.473 88.44L360.683 88.33C362.443 83.49 364.863 77 367.723 70.95C365.523 65.89 351.663 34.98 346.053 20.46C343.853 13.75 349.243 11.33 355.183 11.33H375.533C385.103 11.33 387.523 19.03 387.523 26.95C387.523 29.26 387.083 32.45 386.313 36.19C389.063 29.81 398.303 10.89 412.713 10.89C425.033 10.89 426.023 20.24 426.023 29.59C426.023 29.04 426.023 28.6 425.473 28.49C427.453 33.22 440.873 65.01 446.593 77.99C449.563 85.14 445.603 88.44 438.013 88.33H416.343C407.103 88.33 401.603 82.83 404.793 73.04C411.723 51.92 425.473 12.76 411.723 12.76ZM368.053 67.32C375.973 43.34 383.343 13.31 368.383 13.2L355.073 13.09C349.243 13.09 345.283 15.4 348.363 21.45C353.203 33.88 363.873 57.97 368.053 67.32ZM425.583 33.33C424.483 41.25 421.403 51.7 418.653 60.5C411.283 83.6 407.763 86.02 420.523 86.57H438.123C441.203 86.57 443.953 86.13 445.163 84.48C446.263 82.94 445.933 80.74 444.283 77.11C439.113 65.89 429.873 43.67 425.583 33.33ZM470.531 88H436.541V86.46C436.541 86.46 441.601 86.35 443.031 85.91C445.561 85.25 446.441 83.71 446.771 81.62C447.101 80.19 447.101 76.45 447.101 73.59V23.54C447.101 21.45 447.101 18.81 446.771 17.38C446.441 15.29 445.561 13.75 443.031 13.09C441.601 12.65 436.541 12.54 436.541 12.54V11H460.191C490.001 11 495.501 23.87 495.501 30.36C495.501 41.91 482.961 49.39 466.461 49.39H463.601V47.63H466.571C478.341 47.63 486.261 40.59 486.261 30.58C486.261 18.37 475.151 12.76 460.081 12.76H456.341V81.07L456.231 85.47L470.531 86.57V88ZM519.25 86.57C536.08 86.57 546.2 54.78 548.51 47.85C553.57 30.14 560.5 10.89 560.5 10.89L570.29 11C568.53 15.84 566.22 22.33 563.25 28.38C565.45 33.44 579.31 64.35 584.92 78.87C587.12 85.58 581.73 88 575.79 88H555.44C545.87 88 543.45 80.3 543.45 72.38C543.45 70.07 543.89 66.88 544.66 63.14C541.91 69.52 532.67 88.44 518.26 88.44C505.94 88.44 504.95 79.09 504.95 69.74C504.95 70.29 504.95 70.73 505.5 70.84C503.52 66.11 490.1 34.32 484.38 21.34C481.41 14.19 485.37 10.89 492.96 11H514.63C523.87 11 529.37 16.5 526.18 26.29C519.25 47.41 505.5 86.57 519.25 86.57ZM505.39 66C506.49 58.08 509.57 47.63 512.32 38.83C519.69 15.73 523.21 13.31 510.45 12.76H492.85C489.77 12.76 487.02 13.2 485.81 14.85C484.71 16.39 485.04 18.59 486.69 22.22C491.86 33.44 501.1 55.66 505.39 66ZM562.81 31.79L562.92 32.01C555 56.1 547.63 86.13 562.59 86.13L575.9 86.24C581.73 86.24 585.69 83.93 582.61 77.88C577.77 65.45 567.1 41.36 562.81 31.79ZM594.228 12.76V34.43H633.498L629.538 25.08L630.858 24.31L655.938 70.84L654.618 71.61C654.618 71.61 641.308 47.74 638.448 43.89C632.838 36.3 627.338 36.19 618.868 36.19H594.228V86.24H636.248C640.208 86.24 643.838 86.13 646.148 85.91C652.968 85.47 658.138 82.83 662.538 72.82C666.938 62.7 672.988 41.8 672.988 41.8L674.748 42.13L660.998 88H574.428V86.46C574.428 86.46 579.488 86.35 580.918 85.91C583.448 85.25 584.328 83.71 584.658 81.62C584.988 80.19 584.988 77.55 584.988 75.46V23.54C584.988 21.45 584.988 18.81 584.658 17.38C584.328 15.29 583.448 13.75 580.918 13.09C579.488 12.65 574.428 12.54 574.428 12.54V11H665.068L680.248 42.79L678.708 43.56L674.088 33.88C668.478 22.44 660.998 13.86 650.218 13.09C647.908 12.87 644.168 12.76 640.208 12.76H594.228ZM778.222 108.46L776.792 109.23C771.072 97.79 763.482 89.1 752.702 88.33C748.192 88 724.102 88 709.032 88H695.942C690.992 88 685.712 88.11 682.852 88.33C671.962 89.1 664.372 97.79 658.872 109.23L657.332 108.46L668.002 86.24H668.552C668.552 86.24 674.382 86.24 676.802 85.36C681.422 83.71 685.602 75.9 687.692 71.83L712.552 20.79C712.882 19.8 713.212 18.92 713.542 18.04C714.312 15.95 713.872 13.42 710.132 13.2C708.812 13.09 692.202 12.54 692.202 12.54V11H724.652L747.972 73.37C748.852 75.46 751.162 80.41 753.032 82.61C754.572 84.37 756.992 85.36 758.532 85.69C760.952 86.24 764.912 86.24 764.912 86.24H767.552L778.222 108.46ZM682.852 86.24H742.912L716.732 16.17L682.852 86.24ZM764.986 12.76V34.43H804.256L800.296 25.08L801.616 24.31L826.696 70.84L825.376 71.61C825.376 71.61 812.066 47.74 809.206 43.89C803.596 36.3 798.096 36.19 789.626 36.19H764.986V86.24H807.006C810.966 86.24 814.596 86.13 816.906 85.91C823.726 85.47 828.896 82.83 833.296 72.82C837.696 62.7 843.746 41.8 843.746 41.8L845.506 42.13L831.756 88H745.186V86.46C745.186 86.46 750.246 86.35 751.676 85.91C754.206 85.25 755.086 83.71 755.416 81.62C755.746 80.19 755.746 77.55 755.746 75.46V23.54C755.746 21.45 755.746 18.81 755.416 17.38C755.086 15.29 754.206 13.75 751.676 13.09C750.246 12.65 745.186 12.54 745.186 12.54V11H835.826L851.006 42.79L849.466 43.56L844.846 33.88C839.236 22.44 831.756 13.86 820.976 13.09C818.666 12.87 814.926 12.76 810.966 12.76H764.986ZM937.76 32.89L937.87 33.11C929.62 57.2 921.37 86.79 934.79 86.79L950.74 87.12C956.57 87.12 960.53 84.81 957.45 78.76C952.5 65.89 941.61 41.36 937.76 32.89ZM877.7 12.76H851.19C845.36 12.76 841.4 15.07 844.48 21.12C848.88 32.34 857.68 52.47 862.3 62.92C865.71 45.98 875.39 19.25 877.7 12.76ZM935.56 10.89L945.9 11C944.14 16.06 941.5 22.99 938.53 30.03C939.52 32.56 953.93 64.57 959.76 79.75C961.96 86.46 956.57 88.88 950.63 88.88L930.28 88.55C920.71 88.55 918.29 80.96 918.29 73.04C918.29 71.39 918.51 69.3 918.95 66.88C916.09 75.02 909.93 89.1 902.01 89.1C890.9 89.1 889.58 80.08 889.58 72.16C889.58 70.84 889.69 69.3 890.02 67.54C887.05 75.68 881 89.1 873.3 89.1C862.19 89.1 861.09 78.65 861.09 72.38C861.09 70.62 861.31 68.42 862.19 66.99C858.34 58.41 847.12 33.11 842.17 20.13C839.97 13.53 845.14 11.11 850.97 11H888.15C880.56 32.12 860.32 87.23 874.29 87.23C883.09 87.23 891.56 58.08 894.42 48.95C899.59 31.02 907.07 11 907.07 11H916.86C909.27 32.12 889.03 87.23 903 87.23C912.35 87.23 921.37 54.12 923.57 47.41L923.35 48.29C928.52 30.36 935.56 10.89 935.56 10.89ZM974.587 88H952.037V86.46C952.037 86.46 957.097 86.35 958.527 85.91C961.057 85.25 961.937 83.71 962.267 81.62C962.597 80.19 962.597 77.55 962.597 75.46V25.41C962.597 22.55 962.597 18.81 962.267 17.38C961.937 15.29 961.057 13.75 958.527 13.09C957.097 12.65 952.037 12.54 952.037 12.54V11H986.027V12.43L971.727 13.53L971.837 17.93V86.24H974.587C989.657 86.24 1005.94 78.32 1005.94 59.62C1005.94 45.87 996.587 33.77 979.867 33.77H977.447V32.01H980.967C1002.97 32.01 1015.18 44.44 1015.18 59.51C1015.18 75.79 1002.53 88 974.587 88ZM1056.65 33.66C1056.65 23.76 1050.49 14.08 1036.96 14.08C1026.62 14.08 1017.16 20.9 1012.32 31.79H1010.78V2.31H1012.32L1013.64 15.07C1013.64 15.07 1021.23 9.13 1032.34 9.13C1052.14 9.13 1058.41 22.66 1058.41 33.55C1058.41 52.36 1043.34 67.1 1038.39 71.06L1047.96 72.16V73.59H1013.53V71.83C1026.62 71.83 1056.65 53.13 1056.65 33.66ZM1025.3 84.37C1025.3 81.62 1027.17 79.75 1029.92 79.75C1032.67 79.75 1034.54 81.62 1034.54 84.37C1034.54 87.12 1032.67 88.99 1029.92 88.99C1027.17 88.99 1025.3 87.12 1025.3 84.37Z" fill="black"/>
</svg>

